<svg xmlns="http://www.w3.org/2000/svg" viewBox="0 0 1600 900" preserveAspectRatio="xMidYMid slice"><defs><linearGradient id="grass" x2="0" y2="1"><stop stop-color="#0a6d3d"/><stop offset="1" stop-color="#053e2c"/></linearGradient><radialGradient id="light"><stop stop-color="#8de2a4" stop-opacity=".32"/><stop offset="1" stop-color="#073820" stop-opacity="0"/></radialGradient><pattern id="stripe" width="200" height="900" patternUnits="userSpaceOnUse"><rect width="100" height="900" fill="#fff" opacity=".045"/></pattern></defs><rect width="1600" height="900" fill="url(#grass)"/><rect width="1600" height="900" fill="url(#stripe)"/><rect width="1600" height="900" fill="url(#light)"/><g fill="none" stroke="#f3fff5" stroke-opacity=".58" stroke-width="6"><rect x="100" y="80" width="1400" height="740" rx="2"/><path d="M800 80V820"/><circle cx="800" cy="450" r="115"/><circle cx="800" cy="450" r="5" fill="#fff"/><rect x="100" y="270" width="230" height="360"/><rect x="1270" y="270" width="230" height="360"/><rect x="100" y="350" width="75" height="200"/><rect x="1425" y="350" width="75" height="200"/><path d="M330 355a115 115 0 0 1 0 190M1270 355a115 115 0 0 0 0 190"/><circle cx="240" cy="450" r="5" fill="#fff"/><circle cx="1360" cy="450" r="5" fill="#fff"/></g><rect width="1600" height="900" fill="#071b3c" opacity=".42"/></svg>